<?xml version="1.0" standalone="no"?>
<!DOCTYPE svg PUBLIC "-//W3C//DTD SVG 20010904//EN"
 "http://www.w3.org/TR/2001/REC-SVG-20010904/DTD/svg10.dtd">
<svg version="1.0" xmlns="http://www.w3.org/2000/svg"
 width="300.000000pt" height="300.000000pt" viewBox="0 0 300.000000 300.000000"
 preserveAspectRatio="xMidYMid meet">

<g transform="translate(0.000000,300.000000) scale(0.100000,-0.100000)"
fill="#000000" stroke="none">
<path d="M930 1490 l0 -580 224 0 c260 0 342 12 454 65 197 93 305 312 289
585 -17 274 -156 442 -409 494 -58 12 -138 16 -318 16 l-240 0 0 -580z m505
306 c81 -34 118 -92 137 -211 16 -102 0 -226 -39 -298 -45 -83 -112 -117 -230
-117 l-63 0 0 326 0 327 78 -5 c42 -3 95 -13 117 -22z"/>
</g>
</svg>
